{
  "accessors": [
    {
      "bufferView": 2,
      "componentType": 5126,
      "count": 4708,
      "max": [
        14.169026374816895,
        160.72352600097656,
        24.778657913208008
      ],
      "min": [
        -8.758064270019531,
        1.2535254955291748,
        -8.853858947753906
      ],
      "type": "VEC3"
    },
    {
      "bufferView": 2,
      "byteOffset": 56496,
      "componentType": 5126,
      "count": 4708,
      "max": [
        0.9992650151252747,
        0.9988570213317871,
        0.9999775886535645
      ],
      "min": [
        -0.9982860088348389,
        -0.9999127984046936,
        -0.9999741911888123
      ],
      "type": "VEC3"
    },
    {
      "bufferView": 1,
      "componentType": 5126,
      "count": 4708,
      "max": [
        0.9974039793014526,
        0.9913470149040222
      ],
      "min": [
        0.00612299982458353,
        0.003925800323486328
      ],
      "type": "VEC2"
    },
    {
      "bufferView": 0,
      "componentType": 5125,
      "count": 22662,
      "type": "SCALAR"
    },
    {
      "bufferView": 2,
      "byteOffset": 112992,
      "componentType": 5126,
      "count": 3871,
      "max": [
        15.783234596252441,
        107.07027435302734,
        10.490153312683105
      ],
      "min": [
        -14.263188362121582,
        -0.4694008231163025,
        -9.77186107635498
      ],
      "type": "VEC3"
    },
    {
      "bufferView": 2,
      "byteOffset": 159444,
      "componentType": 5126,
      "count": 3871,
      "max": [
        0.9998677372932434,
        0.9959652423858643,
        0.9999991655349731
      ],
      "min": [
        -0.9999240636825562,
        -0.9990957379341125,
        -0.9999986290931702
      ],
      "type": "VEC3"
    },
    {
      "bufferView": 1,
      "byteOffset": 37664,
      "componentType": 5126,
      "count": 3871,
      "max": [
        0.9885600209236145,
        -0.007373000029474497
      ],
      "min": [
        0.006634999997913837,
        -0.9938570261001587
      ],
      "type": "VEC2"
    },
    {
      "bufferView": 0,
      "byteOffset": 90648,
      "componentType": 5125,
      "count": 20166,
      "type": "SCALAR"
    },
    {
      "bufferView": 2,
      "byteOffset": 205896,
      "componentType": 5126,
      "count": 3400,
      "max": [
        28.354373931884766,
        140.67160034179688,
        17.555953979492188
      ],
      "min": [
        -26.534170150756836,
        104.29376220703125,
        -10.901358604431152
      ],
      "type": "VEC3"
    },
    {
      "bufferView": 2,
      "byteOffset": 246696,
      "componentType": 5126,
      "count": 3400,
      "max": [
        0.9999105334281921,
        0.9997831583023071,
        0.9988080263137817
      ],
      "min": [
        -0.9995561838150024,
        -0.99959796667099,
        -0.9997969269752502
      ],
      "type": "VEC3"
    },
    {
      "bufferView": 1,
      "byteOffset": 68632,
      "componentType": 5126,
      "count": 3400,
      "max": [
        -0.045802000910043716,
        0.9891700148582458
      ],
      "min": [
        -0.9950199723243713,
        0.004497999791055918
      ],
      "type": "VEC2"
    },
    {
      "bufferView": 0,
      "byteOffset": 171312,
      "componentType": 5125,
      "count": 16917,
      "type": "SCALAR"
    },
    {
      "bufferView": 2,
      "byteOffset": 287496,
      "componentType": 5126,
      "count": 4173,
      "max": [
        8.162261962890625,
        163.02584838867188,
        8.603120803833008
      ],
      "min": [
        -10.759900093078613,
        111.1797866821289,
        -15.065673828125
      ],
      "type": "VEC3"
    },
    {
      "bufferView": 2,
      "byteOffset": 337572,
      "componentType": 5126,
      "count": 4173,
      "max": [
        0.9998725652694702,
        0.9977179169654846,
        0.9998496770858765
      ],
      "min": [
        -0.9983864426612854,
        -0.997046709060669,
        -0.9999068379402161
      ],
      "type": "VEC3"
    },
    {
      "bufferView": 1,
      "byteOffset": 95832,
      "componentType": 5126,
      "count": 4173,
      "max": [
        0.9935889840126038,
        1.994320034980774
      ],
      "min": [
        0.00011600000289035961,
        1.0007569789886475
      ],
      "type": "VEC2"
    },
    {
      "bufferView": 0,
      "byteOffset": 238980,
      "componentType": 5125,
      "count": 18348,
      "type": "SCALAR"
    },
    {
      "bufferView": 2,
      "byteOffset": 387648,
      "componentType": 5126,
      "count": 182,
      "max": [
        3.6746225357055664,
        149.42288208007813,
        4.729151248931885
      ],
      "min": [
        -5.219997406005859,
        146.4185791015625,
        3.9816269874572754
      ],
      "type": "VEC3"
    },
    {
      "bufferView": 2,
      "byteOffset": 389832,
      "componentType": 5126,
      "count": 182,
      "max": [
        0.48093095421791077,
        0.2355707883834839,
        0.9904636740684509
      ],
      "min": [
        -0.5020533204078674,
        -0.20944707095623016,
        0.8643114566802979
      ],
      "type": "VEC3"
    },
    {
      "bufferView": 1,
      "byteOffset": 129216,
      "componentType": 5126,
      "count": 182,
      "max": [
        1.9887839555740356,
        0.9889219999313354
      ],
      "min": [
        1.010105013847351,
        0.010243999771773815
      ],
      "type": "VEC2"
    },
    {
      "bufferView": 0,
      "byteOffset": 312372,
      "componentType": 5125,
      "count": 864,
      "type": "SCALAR"
    }
  ],
  "asset": {
    "extras": {
      "author": "xinren (https://sketchfab.com/xinren)",
      "license": "CC-BY-NC-4.0 (http://creativecommons.org/licenses/by-nc/4.0/)",
      "source": "https://sketchfab.com/3d-models/chainsawman-makima-a0fdfa91fee143898a80958362ba052c",
      "title": "CHAINSAWMAN - MAKIMA"
    },
    "generator": "Sketchfab-14.20.0",
    "version": "2.0"
  },
  "bufferViews": [
    {
      "buffer": 0,
      "byteLength": 315828,
      "name": "floatBufferViews",
      "target": 34963
    },
    {
      "buffer": 0,
      "byteLength": 130672,
      "byteOffset": 315828,
      "byteStride": 8,
      "name": "floatBufferViews",
      "target": 34962
    },
    {
      "buffer": 0,
      "byteLength": 392016,
      "byteOffset": 446500,
      "byteStride": 12,
      "name": "floatBufferViews",
      "target": 34962
    }
  ],
  "buffers": [
    {
      "byteLength": 838516,
      "uri": "scene.bin"
    }
  ],
  "extensionsUsed": [
    "KHR_materials_unlit"
  ],
  "images": [
    {
      "uri": "textures/Skin_baseColor.png"
    },
    {
      "uri": "textures/trouser_baseColor.png"
    },
    {
      "uri": "textures/Shirt_baseColor.png"
    },
    {
      "uri": "textures/Hair_baseColor.png"
    },
    {
      "uri": "textures/material_baseColor.png"
    }
  ],
  "materials": [
    {
      "doubleSided": true,
      "extensions": {
        "KHR_materials_unlit": {}
      },
      "name": "Skin",
      "pbrMetallicRoughness": {
        "baseColorTexture": {
          "index": 0
        },
        "metallicFactor": 0.0
      }
    },
    {
      "doubleSided": true,
      "extensions": {
        "KHR_materials_unlit": {}
      },
      "name": "trouser",
      "pbrMetallicRoughness": {
        "baseColorTexture": {
          "index": 1
        },
        "metallicFactor": 0.0
      }
    },
    {
      "doubleSided": true,
      "extensions": {
        "KHR_materials_unlit": {}
      },
      "name": "Shirt",
      "pbrMetallicRoughness": {
        "baseColorTexture": {
          "index": 2
        },
        "metallicFactor": 0.0
      }
    },
    {
      "doubleSided": true,
      "extensions": {
        "KHR_materials_unlit": {}
      },
      "name": "Hair",
      "pbrMetallicRoughness": {
        "baseColorTexture": {
          "index": 3
        },
        "metallicFactor": 0.0
      }
    },
    {
      "doubleSided": true,
      "extensions": {
        "KHR_materials_unlit": {}
      },
      "name": "material",
      "pbrMetallicRoughness": {
        "baseColorTexture": {
          "index": 4
        },
        "metallicFactor": 0.0
      }
    }
  ],
  "meshes": [
    {
      "name": "makima_skin.001_Skin_0",
      "primitives": [
        {
          "attributes": {
            "NORMAL": 1,
            "POSITION": 0,
            "TEXCOORD_0": 2
          },
          "indices": 3,
          "material": 0,
          "mode": 4
        }
      ]
    },
    {
      "name": "makima_skin.001_trouser_0",
      "primitives": [
        {
          "attributes": {
            "NORMAL": 5,
            "POSITION": 4,
            "TEXCOORD_0": 6
          },
          "indices": 7,
          "material": 1,
          "mode": 4
        }
      ]
    },
    {
      "name": "makima_skin.001_Shirt_0",
      "primitives": [
        {
          "attributes": {
            "NORMAL": 9,
            "POSITION": 8,
            "TEXCOORD_0": 10
          },
          "indices": 11,
          "material": 2,
          "mode": 4
        }
      ]
    },
    {
      "name": "makima_skin.001_Hair_0",
      "primitives": [
        {
          "attributes": {
            "NORMAL": 13,
            "POSITION": 12,
            "TEXCOORD_0": 14
          },
          "indices": 15,
          "material": 3,
          "mode": 4
        }
      ]
    },
    {
      "name": "makima_skin.001_Eye_0",
      "primitives": [
        {
          "attributes": {
            "NORMAL": 17,
            "POSITION": 16,
            "TEXCOORD_0": 18
          },
          "indices": 19,
          "material": 4,
          "mode": 4
        }
      ]
    }
  ],
  "nodes": [
    {
      "children": [
        1
      ],
      "matrix": [
        1.0,
        0.0,
        0.0,
        0.0,
        0.0,
        2.220446049250313e-16,
        -1.0,
        0.0,
        0.0,
        1.0,
        2.220446049250313e-16,
        0.0,
        0.0,
        0.0,
        0.0,
        1.0
      ],
      "name": "Sketchfab_model"
    },
    {
      "children": [
        2
      ],
      "matrix": [
        0.009999999776482582,
        0.0,
        0.0,
        0.0,
        0.0,
        0.0,
        0.009999999776482582,
        0.0,
        0.0,
        -0.009999999776482582,
        0.0,
        0.0,
        0.0,
        0.0,
        0.0,
        1.0
      ],
      "name": "a0f729454c3a47499eeae5038adfbb73.fbx"
    },
    {
      "children": [
        3
      ],
      "name": "RootNode"
    },
    {
      "children": [
        4,
        5,
        6,
        7,
        8
      ],
      "matrix": [
        1.0,
        1.8699211068451405e-09,
        9.724865338509917e-17,
        0.0,
        -1.8699211068451314e-09,
        0.9999999999999867,
        1.6338636044110833e-07,
        0.0,
        2.0827095057433847e-16,
        -1.6338636044110833e-07,
        0.9999999999999867,
        0.0,
        -8.195638656616211e-08,
        -4.893348299803667e-15,
        3.003515303134918e-08,
        1.0
      ],
      "name": "makima_skin.001"
    },
    {
      "mesh": 0,
      "name": "makima_skin.001_Skin_0"
    },
    {
      "mesh": 1,
      "name": "makima_skin.001_trouser_0"
    },
    {
      "mesh": 2,
      "name": "makima_skin.001_Shirt_0"
    },
    {
      "mesh": 3,
      "name": "makima_skin.001_Hair_0"
    },
    {
      "mesh": 4,
      "name": "makima_skin.001_Eye_0"
    }
  ],
  "samplers": [
    {
      "magFilter": 9729,
      "minFilter": 9987,
      "wrapS": 10497,
      "wrapT": 10497
    }
  ],
  "scene": 0,
  "scenes": [
    {
      "name": "Sketchfab_Scene",
      "nodes": [
        0
      ]
    }
  ],
  "textures": [
    {
      "sampler": 0,
      "source": 0
    },
    {
      "sampler": 0,
      "source": 1
    },
    {
      "sampler": 0,
      "source": 2
    },
    {
      "sampler": 0,
      "source": 3
    },
    {
      "sampler": 0,
      "source": 4
    }
  ]
}
